# xmcd
# 
# Track frame offsets:
#     150
#     2626
#     6291
#     9810
#     19253
#     26839
#     31694
#     41302
#     45121
#     49030
#     68583
#     75870
#     87145
#     96228
#     103528
#     109306
#     112935
#     116522
#     124303
#     135921
#     145435
#     153532
#     168058
#     174803
#     196202
#     207147
#     214822
#     226590
#     244864
#     280017
#     291384
#     300898
#     312265
# 
# Disc length: 4392
# 
# Revision: 0
# Processed by: cddbd v1.5.2PL0 Copyright (c) Steve Scherf et al.
# Submitted via: BonkEnc v1.0.15
# 
DISCID=91112621
DTITLE=Rodney Carrington - King Of The Mountains
DYEAR=0
DGENRE=Country
TTITLE0=Intro
TTITLE1=Tee Off
TTITLE2=Massage
TTITLE3=TV Show
TTITLE4=Shopping On Rodeo Street
TTITLE5=Real Fancy Place
TTITLE6=Give It A Try
TTITLE7=Zoo
TTITLE8=Yoga Class
TTITLE9=Boxing
TTITLE10=Christmas with The Kids
TTITLE11=Home Movie
TTITLE12=Short Arms
TTITLE13=Wheel Of Fortune
TTITLE14=Travel Pillow
TTITLE15=The Apple
TTITLE16=Fun
TTITLE17=Changes
TTITLE18=Baby Back (Live)
TTITLE19=Fat Girl
TTITLE20=Put Your Clothes Back On (Live)
TTITLE21=Rap Star (Live)
TTITLE22=Rhymes With Truck (Live)
TTITLE23=Show Them To Me (Live)
TTITLE24=Baby Back
TTITLE25=Rhymes With Truck
TTITLE26=Rap Star
TTITLE27=Show Them To Me
TTITLE28=Tribute To Barry Martin
TTITLE29=Angel friend (Live)
TTITLE30=Fat Girl (Live)
TTITLE31=Angel Friend
TTITLE32=Redneck Yacht Club (Live)
EXTD=
EXTT0=
EXTT1=
EXTT2=
EXTT3=
EXTT4=
EXTT5=
EXTT6=
EXTT7=
EXTT8=
EXTT9=
EXTT10=
EXTT11=
EXTT12=
EXTT13=
EXTT14=
EXTT15=
EXTT16=
EXTT17=
EXTT18=
EXTT19=
EXTT20=
EXTT21=
EXTT22=
EXTT23=
EXTT24=
EXTT25=
EXTT26=
EXTT27=
EXTT28=
EXTT29=
EXTT30=
EXTT31=
EXTT32=
PLAYORDER=
